<?xml version="1.0" encoding="utf-8"?>
<!-- Generator: Adobe Illustrator 16.0.0, SVG Export Plug-In . SVG Version: 6.00 Build 0)  -->
<!DOCTYPE svg PUBLIC "-//W3C//DTD SVG 1.1//EN" "http://www.w3.org/Graphics/SVG/1.1/DTD/svg11.dtd">
<svg version="1.1" id="Layer_1" xmlns="http://www.w3.org/2000/svg" xmlns:xlink="http://www.w3.org/1999/xlink" x="0px" y="0px"
	 width="101px" height="18px" viewBox="0 0 101 18" enable-background="new 0 0 101 18" xml:space="preserve">
<desc>Created with Sketch.</desc>
<g>
	<path fill="#FFFFFF" d="M19.203,5.115h3.973v7.677c0,0.761-0.119,1.479-0.356,2.156s-0.609,1.268-1.116,1.774
		c-0.507,0.506-1.039,0.861-1.595,1.067c-0.773,0.286-1.702,0.43-2.786,0.43c-0.627,0-1.311-0.044-2.052-0.132
		s-1.361-0.262-1.859-0.522s-0.954-0.631-1.367-1.11c-0.413-0.48-0.696-0.976-0.848-1.485c-0.246-0.819-0.369-1.546-0.369-2.178
		V5.115H14.8v7.859c0,0.703,0.195,1.252,0.584,1.646c0.39,0.396,0.93,0.593,1.622,0.593c0.686,0,1.223-0.194,1.613-0.584
		s0.584-0.94,0.584-1.655V5.115z"/>
	<path fill="#FFFFFF" d="M23.214,0.82h5.549l3.867,12.363L36.448,0.82h5.388L35.457,18h-5.754L23.214,0.82z"/>
	<path fill="#FFFFFF" d="M40.282,9.422c0-2.805,0.781-4.988,2.344-6.551s3.738-2.344,6.527-2.344c2.859,0,5.062,0.768,6.609,2.303
		s2.32,3.686,2.32,6.451c0,2.008-0.338,3.654-1.014,4.939s-1.652,2.285-2.93,3s-2.869,1.072-4.775,1.072
		c-1.938,0-3.541-0.309-4.811-0.926s-2.299-1.594-3.088-2.93S40.282,11.43,40.282,9.422z M45.59,9.445
		c0,1.734,0.322,2.98,0.967,3.738s1.521,1.137,2.631,1.137c1.141,0,2.023-0.371,2.648-1.113s0.938-2.074,0.938-3.996
		c0-1.617-0.326-2.799-0.979-3.545s-1.537-1.119-2.654-1.119c-1.07,0-1.93,0.379-2.578,1.137S45.59,7.695,45.59,9.445z"/>
	<path fill="#FFFFFF" d="M57.314,0.82h16.137v4.242h-5.414V18h-5.309V5.063h-5.414V0.82z"/>
	<path fill="#FFFFFF" d="M74.041,0.82h14.227v3.668h-8.906v2.73h8.262v3.504h-8.262v3.387h9.164V18H74.041V0.82z"/>
</g>
</svg>
